{"title":"Intolerable.Cruelty.2003.720p.BRRip.x264.aac.mp4.anoXmous","uid":6852439,"size":734045453,"categoryP":"video","categoryS":"hd___movies","magnet":"?xt=urn:btih:03b077ce60ab2f6500f54550c61b2df9bce40470&amp;dn=Intolerable.Cruelty.2003.720p.BRRip.x264.aac.mp4.anoXmous&amp;tr=udp%3A%2F%2Ftracker.openbittorrent.com%3A80&amp;tr=udp%3A%2F%2Fopen.demonii.com%3A1337&amp;tr=udp%3A%2F%2Ftracker.coppersurfer.tk%3A6969&amp;tr=udp%3A%2F%2Fexodus.desync.com%3A6969","seeders":1,"leechers":0,"uploader":"anoXmous","files":-1,"time":1322577466,"description":"Intolerable.Cruelty.2003.720p.BRRip.x264.aac.mp4.anoXmous\n\nFormat                           : MPEG-4\nFormat profile                   : Base Media\nCodec ID                         : isom\nFile size                        : 700 MiB\nDuration                         : 1h 39mn\nOverall bit rate mode            : Variable\nOverall bit rate                 : 983 Kbps\n\nVideo\nID                               : 1\nFormat                           : AVC\nFormat/Info                      : Advanced Video Codec\nFormat profile                   : &lt;a class=&quot;__cf_email__&quot; href=&quot;/cdn-cgi/l/email-protection&quot; data-cfemail=&quot;672f0e000f272b534956&quot;&gt;[email&amp;#160;protected]&lt;/a&gt;&lt;script cf-hash='f9e31' type=&quot;text/javascript&quot;&gt;\n/* &lt;![CDATA[ */!function(){try{var t=&quot;currentScript&quot;in document?document.currentScript:function(){for(var t=document.getElementsByTagName(&quot;script&quot;),e=t.length;e--;)if(t[e].getAttribute(&quot;cf-hash&quot;))return t[e]}();if(t&amp;&amp;t.previousSibling){var e,r,n,i,c=t.previousSibling,a=c.getAttribute(&quot;data-cfemail&quot;);if(a){for(e=&quot;&quot;,r=parseInt(a.substr(0,2),16),n=2;a.length-n;n+=2)i=parseInt(a.substr(n,2),16)^r,e+=String.fromCharCode(i);e=document.createTextNode(e),c.parentNode.replaceChild(e,c)}}}catch(u){}}();/* ]]&gt; */&lt;/script&gt;\nFormat settings, CABAC           : Yes\nFormat settings, ReFrames        : 4 frames\nCodec ID                         : avc1\nCodec ID/Info                    : Advanced Video Coding\nDuration                         : 1h 39mn\nBit rate                         : 911 Kbps\nMaximum bit rate                 : 6 065 Kbps\nWidth                            : 1 280 pixels\nHeight                           : 688 pixels\nDisplay aspect ratio             : 1.850\nFrame rate mode                  : Constant\nFrame rate                       : 23.976 fps\nColor space                      : YUV\nChroma subsampling               : 4:2:0\nBit depth                        : 8 bits\nScan type                        : Progressive\nBits/(Pixel*Frame)               : 0.043\nStream size                      : 649 MiB (93%)\nWriting library                  : x264 core 119 r2106 07efeb4\n\nAudio\nID                               : 2\nFormat                           : AAC\nFormat/Info                      : Advanced Audio Codec\nFormat profile                   : LC\nCodec ID                         : 40\nDuration                         : 1h 39mn\nBit rate mode                    : Variable\nBit rate                         : 68.9 Kbps\nMaximum bit rate                 : 100 Kbps\nChannel(s)                       : 2 channels\nChannel positions                : Front: L R\nSampling rate                    : 48.0 KHz \nCompression mode                 : Lossy\nStream size                      : 49.1 MiB (7%)\nLanguage                         : English\n\n                               SUB:\nIntolerable.Cruelty.2003.720p.BRRip.x264.aac.mp4.anoXmous_swe.srt\n &lt;a href=&quot;\nhttp://www.imdb.com/title/tt0138524/&quot; rel=&quot;nofollow&quot; target=&quot;_NEW&quot;&gt;\nhttp://www.imdb.com/title/tt0138524/&lt;/a&gt;\n\n+++++++This 1 should work very fine with PSP and XBOX :)+++++++++\t","torrent":{"xt":"urn:btih:03b077ce60ab2f6500f54550c61b2df9bce40470","amp;dn":"Intolerable.Cruelty.2003.720p.BRRip.x264.aac.mp4.anoXmous","amp;tr":["udp%3A%2F%2Ftracker.openbittorrent.com%3A80","udp%3A%2F%2Fopen.demonii.com%3A1337","udp%3A%2F%2Ftracker.coppersurfer.tk%3A6969","udp%3A%2F%2Fexodus.desync.com%3A6969"],"infoHash":"03b077ce60ab2f6500f54550c61b2df9bce40470","infoHashBuffer":{"type":"Buffer","data":[3,176,119,206,96,171,47,101,0,245,69,80,198,27,45,249,188,228,4,112]},"announce":[],"urlList":[]}}